# xmcd
#
# Track frame offsets:
#	150
#	13219
#	26107
#	46225
#	67848
#	88036
#	105277
#	126210
#	143507
#	159362
#	174813
#	186022
#	202184
#	214041
#	228935
#	250537
#	265403
#
# Disc length: 3787 seconds
#
# Revision: 1
# Processed by: cddbd v1.5.2PL0 Copyright (c) Steve Scherf et al.
# Submitted via: audiograbber 1.82.02
#
DISCID=da0ec911
DTITLE=Various Artist - The Winners 2004 CD 1
DYEAR=2004
DGENRE=Country
TTITLE0=Sara Storer - Beautiful Circle
TTITLE1=Adam Harvey - Call It Love
TTITLE2=Jimmy Little - Down The Road
TTITLE3=Beccy Cole - Blackwood Hill
TTITLE4=Fick and Cristian - Under The Influence Of Love
TTITLE5=Billy Bridge - Malice Dust
TTITLE6=The Flood - Paul Kelly's Blues
TTITLE7=Relia - Tumbling Down
TTITLE8=Michael Carr - Up On His Shoulders
TTITLE9=Southbound - You Didn't Need The World
TTITLE10=Glenn Jones - Cane To Cotton
TTITLE11=Lee Kernaghan - I'm From The Country
TTITLE12=Trev Warner - Peel Street Pickin'
TTITLE13=Martin Oakes - Good Catleman
TTITLE14=Adam Brand - The Anzac
TTITLE15=Melinda Schneider - When The Last Child Leaves Home
TTITLE16=Keith Urban - Who Wouldn't Wanna Be Me
EXTD=
EXTT0=
EXTT1=
EXTT2=
EXTT3=
EXTT4=
EXTT5=
EXTT6=
EXTT7=
EXTT8=
EXTT9=
EXTT10=
EXTT11=
EXTT12=
EXTT13=
EXTT14=
EXTT15=
EXTT16=
PLAYORDER=
